<svg width="71" height="70" viewBox="0 0 71 70" fill="none" xmlns="http://www.w3.org/2000/svg">
<rect x="1.43127" y="0.5" width="69" height="69" rx="34.5" fill="url(#paint0_linear_83_2018)"/>
<rect x="1.43127" y="0.5" width="69" height="69" rx="34.5" stroke="black"/>
<path d="M53.5687 48.9065C50.0664 54.8236 46.0648 52.8129 44.5129 50.683L44.105 52.3922C47.9708 56.7751 52.6513 53.577 53.5687 48.9065Z" fill="url(#paint1_linear_83_2018)"/>
<path d="M43.3028 44.248C44.2415 45.5707 44.7108 47.1493 44.7108 48.984C44.6749 49.3913 44.6012 50.032 44.4943 50.6657L45.4788 51.8C45.9987 52.2652 46.5099 52.6558 47.0122 52.9718C47.9526 51.2905 48.4228 49.3639 48.4228 47.192C48.4228 45.016 47.9535 43.1813 47.0148 41.688C46.1188 40.152 44.9455 38.8293 43.4948 37.72C42.0442 36.6107 40.4868 35.608 38.8228 34.712C37.2015 33.7733 35.6655 32.856 34.2148 31.96C32.7642 31.0213 31.5695 29.9973 30.6308 28.888C29.7348 27.736 29.2868 26.3707 29.2868 24.792C29.2868 23.4693 29.6282 21.9973 30.3108 20.376C31.0362 18.7547 32.0388 17.2187 33.3188 15.768C34.5988 14.2747 36.0922 13.0587 37.7988 12.12C39.5055 11.1813 41.3615 10.712 43.3668 10.712C44.7322 10.712 45.6708 10.968 46.1828 11.48C46.6948 11.9493 46.9508 12.6107 46.9508 13.464C46.9508 14.4027 46.7588 15.4693 46.3748 16.664C45.9908 17.816 45.5428 19.0107 45.0308 20.248C44.5615 21.4853 44.1348 22.68 43.7508 23.832C43.3668 24.984 43.1748 26.008 43.1748 26.904C43.1748 27.5867 43.3242 28.184 43.6228 28.696C43.9642 29.1653 44.5188 29.4853 45.2868 29.656C45.9695 28.5467 46.6948 27.2027 47.4628 25.624C48.2308 24.0027 48.8708 22.3173 49.3828 20.568C49.9375 18.776 50.2148 17.112 50.2148 15.576C50.2148 13.7413 49.7242 12.2267 48.7428 11.032C47.7615 9.79466 46.0122 9.17599 43.4948 9.17599C40.7215 9.17599 38.2042 9.73066 35.9428 10.84C33.7242 11.9067 31.8042 13.3147 30.1828 15.064C28.6042 16.8133 27.3882 18.6693 26.5348 20.632C25.6815 22.5947 25.2548 24.472 25.2548 26.264C25.2548 28.184 25.7242 29.8267 26.6628 31.192C27.6015 32.5573 28.7962 33.7733 30.2468 34.84C31.7402 35.864 33.3188 36.8453 34.9828 37.784C36.6468 38.7227 38.2042 39.704 39.6548 40.728C41.1482 41.752 42.3642 42.9253 43.3028 44.248Z" fill="url(#paint2_linear_83_2018)"/>
<path d="M44.0284 52.41C44.3678 52.7103 44.7023 52.9972 45.0308 53.272C45.4234 53.6064 45.8191 53.9124 46.2179 54.1898C46.4803 53.8335 46.7247 53.4635 46.9508 53.08C46.9715 53.044 46.992 53.008 47.0122 52.9718C46.5099 52.6558 45.9987 52.2652 45.4788 51.8L44.4943 50.6657C44.3769 51.3616 44.2195 52.0491 44.0284 52.41Z" fill="url(#paint3_linear_83_2018)"/>
<path d="M25.1908 59.544C27.2388 60.3973 29.4148 60.824 31.7188 60.824C33.6815 60.824 35.6442 60.5253 37.6068 59.928C39.5695 59.3307 41.3615 58.456 42.9828 57.304C44.2633 56.4175 45.3417 55.3795 46.2179 54.1898C45.8191 53.9124 45.4234 53.6064 45.0308 53.272C44.7023 52.9972 44.3678 52.7103 44.0284 52.41C43.7461 53.0429 43.3762 53.6289 42.9188 54.168C41.7668 55.5333 40.2735 56.5573 38.4388 57.24C36.6042 57.9653 34.7268 57.9127 32.8068 57.9127C27.6899 58.0652 23.2193 54.1073 22.3269 50.584C21.1423 45.9071 25.9025 41.4099 32.3476 43.4419C36.5472 44.766 41.1662 49.7371 44.0284 52.41C44.2195 52.0491 44.3769 51.3616 44.4943 50.6657L40.0349 45.528C35.7085 41.4629 27.2815 35.9816 20.7024 42.9538C16.3689 48.446 18.9615 54.0613 20.1988 55.768C21.4788 57.4747 23.1428 58.7333 25.1908 59.544Z" fill="url(#paint4_linear_83_2018)"/>
<defs>
<linearGradient id="paint0_linear_83_2018" x1="35.9313" y1="0" x2="35.9313" y2="70" gradientUnits="userSpaceOnUse">
<stop stop-color="white"/>
<stop offset="1" stop-color="#F9F6DA"/>
<stop offset="1" stop-color="#F9F6DA"/>
</linearGradient>
<linearGradient id="paint1_linear_83_2018" x1="35.9313" y1="9.17599" x2="35.9313" y2="60.824" gradientUnits="userSpaceOnUse">
<stop stop-color="#FF9999"/>
<stop offset="1" stop-color="#BB9CC9"/>
</linearGradient>
<linearGradient id="paint2_linear_83_2018" x1="35.9313" y1="9.17599" x2="35.9313" y2="60.824" gradientUnits="userSpaceOnUse">
<stop stop-color="#FF9999"/>
<stop offset="1" stop-color="#BB9CC9"/>
</linearGradient>
<linearGradient id="paint3_linear_83_2018" x1="35.9313" y1="9.17599" x2="35.9313" y2="60.824" gradientUnits="userSpaceOnUse">
<stop stop-color="#FF9999"/>
<stop offset="1" stop-color="#BB9CC9"/>
</linearGradient>
<linearGradient id="paint4_linear_83_2018" x1="35.9313" y1="9.17599" x2="35.9313" y2="60.824" gradientUnits="userSpaceOnUse">
<stop stop-color="#FF9999"/>
<stop offset="1" stop-color="#BB9CC9"/>
</linearGradient>
</defs>
</svg>
