<svg width="217" height="52" viewBox="0 0 217 52" fill="none" xmlns="http://www.w3.org/2000/svg">
<path d="M150.635 48.0058C149.627 48.0058 148.751 47.6338 148.007 46.8898C147.287 46.1698 146.927 45.3058 146.927 44.2978C146.927 43.2658 147.287 42.3898 148.007 41.6698C148.751 40.9258 149.627 40.5538 150.635 40.5538C151.667 40.5538 152.543 40.9258 153.263 41.6698C153.983 42.3898 154.343 43.2658 154.343 44.2978C154.343 45.3058 153.983 46.1698 153.263 46.8898C152.543 47.6338 151.667 48.0058 150.635 48.0058Z" fill="url(#paint0_linear_80_2007)"/>
<path d="M164.817 47.3218C162.729 47.3218 161.085 46.5298 159.885 44.9458C158.709 43.3378 158.121 41.1058 158.121 38.2498C158.121 34.8658 158.997 32.2738 160.749 30.4738C162.525 28.6498 165.045 27.7378 168.309 27.7378C168.717 27.7378 169.329 27.7618 170.145 27.8098V20.5018H175.149V46.7818H170.217L170.325 44.3698H170.181C169.557 45.3298 168.789 46.0618 167.877 46.5658C166.989 47.0698 165.969 47.3218 164.817 47.3218ZM165.969 42.8938C166.737 42.8938 167.481 42.5698 168.201 41.9218C168.921 41.2498 169.569 40.3018 170.145 39.0778V32.4898C169.329 32.2738 168.549 32.1658 167.805 32.1658C166.293 32.1658 165.141 32.6578 164.349 33.6418C163.581 34.6258 163.197 36.0658 163.197 37.9618C163.197 39.4978 163.437 40.7098 163.917 41.5978C164.421 42.4618 165.105 42.8938 165.969 42.8938Z" fill="url(#paint1_linear_80_2007)"/>
<path d="M188.546 47.3218C185.546 47.3218 183.182 46.4578 181.454 44.7298C179.75 43.0018 178.898 40.6018 178.898 37.5298C178.898 35.5378 179.27 33.8098 180.014 32.3458C180.758 30.8578 181.802 29.7178 183.146 28.9258C184.514 28.1338 186.11 27.7378 187.934 27.7378C190.622 27.7378 192.686 28.6018 194.126 30.3298C195.566 32.0578 196.286 34.5538 196.286 37.8178C196.286 38.3698 196.274 38.7778 196.25 39.0418H184.01C184.25 40.3138 184.802 41.2858 185.666 41.9578C186.53 42.6058 187.694 42.9298 189.158 42.9298C190.046 42.9298 190.97 42.8218 191.93 42.6058C192.89 42.3658 193.73 42.0538 194.45 41.6698L195.278 45.7378C194.318 46.2418 193.25 46.6258 192.074 46.8898C190.922 47.1778 189.746 47.3218 188.546 47.3218ZM191.426 35.2258C191.354 34.1938 190.994 33.3778 190.346 32.7778C189.698 32.1538 188.834 31.8418 187.754 31.8418C186.722 31.8418 185.87 32.1418 185.198 32.7418C184.55 33.3418 184.142 34.1698 183.974 35.2258H191.426Z" fill="url(#paint2_linear_80_2007)"/>
<path d="M197.923 28.3138L203.467 27.8098L207.571 41.1658L211.495 28.2418H216.931L210.415 46.7818H204.475L197.923 28.3138Z" fill="url(#paint3_linear_80_2007)"/>
<path d="M6.89702 50.368C8.94502 51.2213 11.121 51.648 13.425 51.648C15.3877 51.648 17.3504 51.3493 19.313 50.752C21.2757 50.1547 23.0677 49.28 24.689 48.128C25.9695 47.2415 27.0478 46.2035 27.9241 45.0138C27.6187 44.8013 27.3151 44.5721 27.0133 44.3262C26.921 44.251 26.8289 44.1743 26.737 44.096C26.591 43.9739 26.4438 43.8493 26.2955 43.7223C26.1101 43.5635 25.9231 43.4008 25.7345 43.234C25.4523 43.8669 25.0824 44.4529 24.625 44.992C23.473 46.3573 21.9797 47.3813 20.145 48.064C18.3104 48.7893 16.433 48.7367 14.513 48.7367C9.39605 48.8892 4.92545 44.9313 4.03307 41.408C2.84852 36.7311 7.60872 32.2339 14.0538 34.2659C18.2534 35.59 22.8724 40.5611 25.7345 43.234C25.8018 43.107 25.8649 42.9394 25.9236 42.7453C25.9998 42.4931 26.0684 42.1961 26.129 41.8847C26.1542 41.7548 26.1781 41.6224 26.2004 41.4897L21.7411 36.352C17.4147 32.2869 8.9877 26.8056 2.40857 33.7778C-1.9249 39.27 0.667686 44.8853 1.90502 46.592C3.18502 48.2987 4.84902 49.5573 6.89702 50.368Z" fill="url(#paint4_linear_80_2007)"/>
<path d="M67.527 36.224L66.567 35.712C66.4313 36.0234 66.2903 36.3332 66.1441 36.6416C65.931 37.7351 65.7766 38.7734 65.6809 39.7563C66.3145 38.6703 66.9299 37.4928 67.527 36.224Z" fill="url(#paint5_linear_80_2007)"/>
<path d="M51.9615 36.352L51.3855 35.712C51.2325 36.0144 51.0802 36.3092 50.9284 36.5965C50.6819 37.7912 50.5178 38.9036 50.436 39.9336C51.0142 38.847 51.5228 37.6532 51.9615 36.352Z" fill="url(#paint6_linear_80_2007)"/>
<path d="M35.2749 39.7305L37.0141 36.5965C36.4203 38.4428 35.8039 36.3112 35.2216 37.6077C35.0383 38.016 35.0346 38.016 34.484 39.1265C34.2669 40.0763 34.5724 40.452 34.4934 41.1947C34.7612 40.8039 35.0146 40.3621 35.2476 39.8637C35.2571 39.8195 35.2749 39.7305 35.2749 39.7305Z" fill="url(#paint7_linear_80_2007)"/>
<path d="M28.657 43.904C28.6777 43.868 28.6982 43.832 28.7184 43.7958C28.216 43.4798 27.7049 43.0892 27.185 42.624L27.0144 42.4275C26.7083 42.1315 26.4476 41.8179 26.2387 41.5338L26.2183 41.5103L26.129 41.8847C26.0684 42.1961 25.9998 42.4931 25.9236 42.7453L25.8112 43.2162C25.9713 43.3978 26.1329 43.5663 26.2955 43.7223C26.4438 43.8493 26.591 43.9739 26.737 44.096C26.8289 44.1743 26.921 44.251 27.0133 44.3262C27.3417 44.5654 27.786 44.588 28.1166 44.736C28.3493 44.4132 28.4537 44.2488 28.657 43.904Z" fill="url(#paint8_linear_80_2007)"/>
<path d="M27.185 42.624C27.7049 43.0892 28.216 43.4798 28.7184 43.7958C28.7669 43.709 28.8142 43.6216 28.8602 43.5336C28.1417 43.3516 27.5169 42.9133 27.0144 42.4275L27.185 42.624Z" fill="url(#paint9_linear_80_2007)"/>
<path d="M95.708 36.288L95.068 35.648C94.4646 37.0358 93.8186 38.3276 93.1298 39.5234C93.0263 40.1847 92.9745 40.8342 92.9745 41.472C92.9745 41.7104 92.9828 41.9443 92.9994 42.1738C94.2148 40.316 95.1177 38.3541 95.708 36.288Z" fill="url(#paint10_linear_80_2007)"/>
<path fill-rule="evenodd" clip-rule="evenodd" d="M26.417 39.808C26.417 37.9733 25.9477 36.3947 25.009 35.072C24.0704 33.7493 22.8544 32.576 21.361 31.552C19.9104 30.528 18.353 29.5467 16.689 28.608C15.025 27.6693 13.4464 26.688 11.953 25.664C10.5024 24.5973 9.30769 23.3813 8.36902 22.016C7.43035 20.6507 6.96102 19.008 6.96102 17.088C6.96102 15.296 7.38769 13.4187 8.24102 11.456C9.09435 9.49333 10.3104 7.63733 11.889 5.888C13.5104 4.13867 15.4304 2.73067 17.649 1.664C19.9104 0.554667 22.4277 0 25.201 0C27.7184 0 29.4677 0.618666 30.449 1.856C31.4304 3.05067 31.921 4.56533 31.921 6.4C31.921 7.936 31.6437 9.6 31.089 11.392C30.577 13.1413 29.937 14.8267 29.169 16.448C28.401 18.0267 27.6757 19.3707 26.993 20.48C26.225 20.3093 25.6704 19.9893 25.329 19.52C25.0304 19.008 24.881 18.4107 24.881 17.728C24.881 16.832 25.073 15.808 25.457 14.656C25.841 13.504 26.2677 12.3093 26.737 11.072C27.249 9.83467 27.697 8.64 28.081 7.488C28.465 6.29333 28.657 5.22667 28.657 4.288C28.657 3.43467 28.401 2.77333 27.889 2.304C27.377 1.792 26.4384 1.536 25.073 1.536C23.0677 1.536 21.2117 2.00533 19.505 2.944C17.7984 3.88267 16.305 5.09867 15.025 6.592C13.745 8.04267 12.7424 9.57867 12.017 11.2C11.3344 12.8213 10.993 14.2933 10.993 15.616C10.993 17.1947 11.441 18.56 12.337 19.712C13.2757 20.8213 14.4704 21.8453 15.921 22.784C17.3717 23.68 18.9077 24.5973 20.529 25.536C22.193 26.432 23.7504 27.4347 25.201 28.544C26.6517 29.6533 27.825 30.976 28.721 32.512C29.6597 34.0053 30.129 35.84 30.129 38.016C30.129 40.0759 29.7061 41.915 28.8602 43.5336C28.1417 43.3516 27.5169 42.9133 27.0144 42.4275C26.7083 42.1315 26.4476 41.8179 26.2387 41.5338L26.2183 41.5103L26.129 41.8847C26.1542 41.7548 26.1781 41.6224 26.2004 41.4897C26.3074 40.856 26.3811 40.2153 26.417 39.808ZM25.9236 42.7453L26.129 41.8847C26.0684 42.1961 25.9998 42.4931 25.9236 42.7453ZM26.2955 43.7223C26.1101 43.5635 25.9231 43.4008 25.7345 43.234C25.8018 43.107 25.8649 42.9394 25.9236 42.7453L25.8112 43.2162C25.9713 43.3978 26.1329 43.5663 26.2955 43.7223ZM27.0133 44.3262C26.7724 44.1508 26.5328 43.9499 26.2955 43.7223C26.4438 43.8493 26.591 43.9739 26.737 44.096C26.8289 44.1743 26.921 44.251 27.0133 44.3262ZM28.1166 44.736C28.0905 44.7723 27.9506 44.9778 27.9241 45.0138C27.6187 44.8013 27.3151 44.5721 27.0133 44.3262C27.3417 44.5654 27.786 44.588 28.1166 44.736ZM50.436 39.9336C49.3835 41.9112 48.1 43.5333 46.5855 44.8C44.2815 46.7627 41.8709 47.744 39.3535 47.744C37.9814 47.744 36.8993 47.3813 36.1074 46.656C35.939 46.5017 35.7837 46.3311 35.6415 46.144C35.4165 45.8597 35.2226 45.5573 35.0601 45.2369C34.9682 45.0558 34.8863 44.8689 34.8144 44.6763C34.6899 44.3427 34.5952 43.7414 34.5305 43.3302L34.5131 43.2196C34.5024 43.1526 34.4927 43.0951 34.484 43.0433C34.445 42.8115 34.4255 42.6955 34.4255 42.368C34.4255 42.2786 34.4269 42.1872 34.4298 42.0936C33.077 44.5878 30.6594 45.8746 28.1166 44.736C28.3493 44.4132 28.4537 44.2488 28.657 43.904C28.6777 43.868 28.6982 43.832 28.7184 43.7958C28.7669 43.709 28.8142 43.6216 28.8602 43.5336C30.5762 43.9682 32.8266 42.9407 35.2216 37.6077C35.0383 38.016 35.0346 38.016 34.484 39.1265C34.2669 40.0763 34.5724 40.452 34.4934 41.1947C34.7612 40.8039 35.0146 40.3621 35.2476 39.8637C35.2571 39.8195 35.2749 39.7305 35.2749 39.7305L37.0141 36.5965C36.4203 38.4428 35.8039 36.3112 35.2216 37.6077C35.6985 36.5459 35.9506 35.2297 36.4095 33.984C37.0069 32.32 37.6895 30.7627 38.4575 29.312C39.2682 27.8613 40.1215 26.688 41.0175 25.792C41.9135 24.8533 42.7882 24.384 43.6415 24.384C44.0255 24.384 44.3455 24.512 44.6015 24.768C44.9002 24.9813 45.0495 25.3227 45.0495 25.792C45.0495 26.304 44.7082 27.136 44.0255 28.288C43.3855 29.44 42.6175 30.7627 41.7215 32.256C40.8255 33.7493 40.0362 35.328 39.3535 36.992C38.7135 38.6133 38.3935 40.1707 38.3935 41.664C38.3935 43.2 38.6495 44.224 39.1615 44.736C39.6735 45.248 40.4629 45.504 41.5295 45.504C42.9802 45.504 44.5162 44.7787 46.1375 43.328C47.6628 41.9983 49.2597 39.7545 50.9284 36.5965C50.6819 37.7912 50.5178 38.9036 50.436 39.9336ZM65.6809 39.7563C64.5034 41.7745 63.2628 43.477 61.959 44.864C59.9537 46.9547 57.799 48 55.495 48C53.6604 48 52.3377 47.36 51.527 46.08C50.759 44.8427 50.375 43.2853 50.375 41.408C50.375 40.9369 50.3953 40.4454 50.436 39.9336C51.0142 38.847 51.5228 37.6532 51.9615 36.352L51.3855 35.712C51.2325 36.0144 51.0802 36.3092 50.9284 36.5965C51.0917 35.8045 51.2913 34.9764 51.527 34.112C52.295 31.296 53.2977 28.3307 54.535 25.216C55.815 22.1013 57.2017 19.072 58.695 16.128C60.1884 13.1413 61.6817 10.432 63.175 8C64.6684 5.568 66.0336 3.62667 67.271 2.176C68.551 0.725333 69.5537 0 70.279 0C70.7483 0 71.1323 0.277334 71.431 0.832001C71.7297 1.344 71.9643 1.984 72.135 2.752C72.3056 3.47733 72.391 4.13867 72.391 4.736C72.391 5.888 72.0923 7.40267 71.495 9.28C70.9403 11.1147 70.1296 13.184 69.063 15.488C68.039 17.7493 66.8016 20.0533 65.351 22.4C63.943 24.704 62.3857 26.9227 60.679 29.056C59.015 31.1893 57.2444 33.024 55.367 34.56C55.111 35.712 54.8977 36.8427 54.727 37.952C54.599 39.0187 54.535 40.0427 54.535 41.024C54.535 42.688 54.7697 43.9253 55.239 44.736C55.7084 45.5467 56.4124 45.952 57.351 45.952C58.503 45.952 59.6337 45.44 60.743 44.416C61.895 43.392 62.9617 42.112 63.943 40.576C64.7754 39.2927 65.5091 37.9813 66.1441 36.6416C65.931 37.7351 65.7766 38.7734 65.6809 39.7563ZM92.9994 42.1738L92.956 42.24C91.7186 44.0747 90.332 45.568 88.796 46.72C87.3026 47.9147 85.8093 48.512 84.316 48.512C83.1213 48.512 82.0973 48.1067 81.244 47.296C80.3906 46.4853 79.708 45.4613 79.196 44.224C78.7267 42.9867 78.364 41.728 78.108 40.448C77.8946 39.1253 77.788 37.9733 77.788 36.992C78.2573 36.992 78.94 36.8853 79.836 36.672C80.732 36.416 81.6493 36.0533 82.588 35.584C83.5266 35.072 84.316 34.432 84.956 33.664C85.6386 32.8533 85.98 31.9147 85.98 30.848C85.98 29.952 85.66 29.248 85.02 28.736C84.38 28.224 83.6333 27.968 82.78 27.968C81.4573 27.968 80.22 28.4373 79.068 29.376C77.916 30.272 76.8707 31.4667 75.932 32.96C75.036 34.4107 74.2253 35.968 73.5 37.632C72.7747 39.296 72.156 40.8747 71.644 42.368C71.132 43.8613 70.7053 45.0987 70.364 46.08C70.108 46.848 69.7453 47.36 69.276 47.616C68.8066 47.9147 68.316 48.064 67.804 48.064C67.0786 48.064 66.5453 47.7653 66.204 47.168C65.9053 46.5707 65.7133 45.824 65.628 44.928C65.5853 43.9893 65.564 43.0293 65.564 42.048C65.564 41.3208 65.6029 40.5569 65.6809 39.7563C66.3145 38.6703 66.9299 37.4928 67.527 36.224L66.567 35.712C66.4313 36.0234 66.2903 36.3332 66.1441 36.6416C66.287 35.9086 66.4563 35.1507 66.652 34.368C67.3773 31.4667 68.3373 28.4587 69.532 25.344C70.7693 22.1867 72.1133 19.136 73.564 16.192C75.0146 13.248 76.4653 10.5813 77.916 8.192C79.3667 5.80267 80.7106 3.904 81.948 2.496C83.1853 1.088 84.188 0.383999 84.956 0.383999C85.5533 0.383999 86.0226 0.789332 86.364 1.6C86.748 2.41066 86.94 3.392 86.94 4.544C86.94 5.99467 86.62 7.63733 85.98 9.472C85.34 11.264 84.4226 13.0773 83.228 14.912C82.076 16.7467 80.6893 18.4747 79.068 20.096C77.4893 21.7173 75.7613 23.104 73.884 24.256C72.476 27.712 71.4093 31.0827 70.684 34.368C70.0013 37.6107 69.66 40.3413 69.66 42.56C70.3426 40.8533 71.1533 38.976 72.092 36.928C73.0733 34.88 74.1826 32.9173 75.42 31.04C76.6573 29.1627 78.0013 27.6267 79.452 26.432C80.9026 25.2373 82.4173 24.64 83.996 24.64C85.5746 24.64 86.9187 25.1947 88.028 26.304C89.1373 27.4133 89.692 28.7573 89.692 30.336C89.692 31.7013 89.3293 32.8747 88.604 33.856C87.9213 34.7947 87.068 35.5627 86.044 36.16C85.0627 36.7147 84.06 37.1413 83.036 37.44C82.0546 37.696 81.244 37.824 80.604 37.824C80.6466 38.1653 80.7747 38.784 80.988 39.68C81.2013 40.576 81.5 41.5147 81.884 42.496C82.3106 43.4773 82.8226 44.3307 83.42 45.056C84.0173 45.7387 84.7426 46.08 85.596 46.08C86.8333 46.08 88.0066 45.6107 89.116 44.672C90.2253 43.7333 91.2707 42.496 92.252 40.96C92.5519 40.4976 92.8445 40.0187 93.1298 39.5234C93.0263 40.1847 92.9745 40.8342 92.9745 41.472C92.9745 41.7104 92.9828 41.9443 92.9994 42.1738ZM114.446 41.0249C113.935 41.7 113.391 42.3397 112.814 42.944C111.065 44.8213 109.145 46.272 107.054 47.296C105.006 48.3627 102.916 48.896 100.782 48.896C98.1798 48.896 96.2171 48.1707 94.8945 46.72C93.7604 45.4725 93.1287 43.9571 92.9994 42.1738C94.2148 40.316 95.1177 38.3541 95.708 36.288L95.068 35.648C94.4646 37.0358 93.8186 38.3276 93.1298 39.5234C93.3381 38.1938 93.7556 36.8167 94.3825 35.392C95.3638 33.2587 96.6438 31.2533 98.2225 29.376C99.8438 27.4987 101.614 25.984 103.534 24.832C105.454 23.6373 107.353 23.04 109.23 23.04C110.212 23.04 111.108 23.296 111.918 23.808C112.772 24.32 113.198 25.3653 113.198 26.944C113.198 28.5653 112.708 30.1013 111.726 31.552C110.788 32.96 109.529 34.2187 107.95 35.328C106.414 36.4373 104.708 37.3547 102.83 38.08C100.996 38.7627 99.1611 39.1893 97.3265 39.36C97.2411 39.7867 97.1771 40.192 97.1345 40.576C97.0918 40.96 97.0705 41.3227 97.0705 41.664C97.0705 42.304 97.1345 42.944 97.2625 43.584C97.4331 44.224 97.7105 44.8213 98.0945 45.376C98.4785 45.888 98.9905 46.2933 99.6305 46.592C100.313 46.8907 101.145 47.04 102.126 47.04C103.961 47.04 105.774 46.528 107.566 45.504C109.358 44.4373 111.022 43.0507 112.558 41.344C113.884 39.8715 115.034 38.2719 116.01 36.5453C115.694 37.5634 115.354 38.5656 114.991 39.552C114.801 40.069 114.619 40.56 114.446 41.0249ZM114.446 41.0249C114.076 42.018 113.746 42.8924 113.455 43.648C112.986 44.7573 112.751 45.4187 112.751 45.632C113.092 46.1013 113.583 46.4427 114.223 46.656C114.82 46.912 115.46 47.04 116.143 47.04C116.996 45.632 117.978 44.032 119.087 42.24C120.196 40.448 121.391 38.72 122.671 37.056C123.951 35.3493 125.274 33.9627 126.639 32.896C128.004 31.7867 129.348 31.232 130.671 31.232C131.396 31.232 131.994 31.4667 132.463 31.936C132.975 32.3627 133.231 33.1733 133.231 34.368C133.231 35.3493 133.082 36.3733 132.783 37.44C132.484 38.464 132.164 39.4667 131.823 40.448C131.524 41.4293 131.375 42.368 131.375 43.264C131.375 44.4587 131.738 45.44 132.463 46.208C133.231 46.976 134.362 47.36 135.855 47.36C137.476 47.36 138.948 46.8907 140.271 45.952C141.594 45.0133 142.81 43.7333 143.919 42.112C145.028 40.4907 146.031 38.6347 146.927 36.544L146.223 35.712C145.455 37.2907 144.559 38.848 143.535 40.384C142.554 41.92 141.53 43.2 140.463 44.224C139.396 45.2053 138.33 45.696 137.263 45.696C136.708 45.696 136.239 45.5253 135.855 45.184C135.514 44.8 135.343 44.16 135.343 43.264C135.343 42.1973 135.556 41.152 135.983 40.128C136.452 39.0613 136.9 37.9733 137.327 36.864C137.754 35.712 137.967 34.4747 137.967 33.152C137.967 31.7013 137.583 30.3787 136.815 29.184C136.09 27.9893 134.895 27.392 133.231 27.392C131.61 27.392 129.988 27.968 128.367 29.12C126.746 30.272 125.21 31.7227 123.759 33.472C122.351 35.1787 121.071 36.9067 119.919 38.656C120.516 36.9067 121.007 35.2427 121.391 33.664C121.775 32.0427 121.967 30.8907 121.967 30.208C121.967 29.0987 121.391 28.544 120.239 28.544C119.642 28.544 119.066 28.6933 118.511 28.992C117.956 29.2907 117.551 29.5893 117.295 29.888C117.295 31.296 117.06 32.8533 116.591 34.56C116.407 35.2283 116.214 35.8901 116.01 36.5453C116.165 36.2708 116.316 35.993 116.462 35.712L117.23 36.288C116.449 38.0239 115.521 39.6029 114.446 41.0249ZM55.943 32.384C57.4364 30.8907 58.887 29.184 60.295 27.264C61.703 25.3013 63.0044 23.2747 64.199 21.184C65.4364 19.0933 66.5243 17.0667 67.463 15.104C68.4016 13.1413 69.127 11.392 69.639 9.856C70.151 8.27733 70.407 7.06133 70.407 6.208C70.407 5.78133 70.343 5.504 70.215 5.376C70.1296 5.248 70.0443 5.184 69.959 5.184C69.6177 5.184 69.0203 5.73867 68.167 6.848C67.3563 7.91467 66.3963 9.36533 65.287 11.2C64.1776 13.0347 63.047 15.1253 61.895 17.472C60.743 19.8187 59.6337 22.272 58.567 24.832C57.543 27.392 56.6684 29.9093 55.943 32.384ZM47.0335 18.432C46.3509 18.432 45.7322 18.2613 45.1775 17.92C44.6655 17.5787 44.4095 17.0453 44.4095 16.32C44.4095 15.424 44.9215 14.656 45.9455 14.016C47.0122 13.3333 48.0575 12.992 49.0815 12.992C49.7215 12.992 50.2335 13.1413 50.6175 13.44C51.0015 13.7387 51.1935 14.2507 51.1935 14.976C51.1935 15.7867 50.7455 16.576 49.8495 17.344C48.9962 18.0693 48.0575 18.432 47.0335 18.432ZM80.092 16.32C78.6413 18.3253 76.9347 20.1173 74.972 21.696C76.2093 18.8373 77.4893 16.192 78.812 13.76C80.1346 11.2853 81.308 9.30133 82.332 7.808C83.3986 6.31467 84.1453 5.568 84.572 5.568C84.6573 5.568 84.7 5.61067 84.7 5.696C84.7426 5.78133 84.764 5.93067 84.764 6.144C84.764 7.21067 84.3586 8.68267 83.548 10.56C82.7373 12.3947 81.5853 14.3147 80.092 16.32ZM97.6465 38.144C98.7985 37.76 100.1 37.2053 101.55 36.48C103.001 35.712 104.388 34.816 105.71 33.792C107.076 32.768 108.185 31.6373 109.038 30.4C109.934 29.1627 110.382 27.8613 110.382 26.496C110.382 26.0267 110.297 25.664 110.126 25.408C109.956 25.152 109.593 25.024 109.038 25.024C108.014 25.024 106.926 25.4293 105.774 26.24C104.622 27.008 103.513 28.032 102.446 29.312C101.38 30.592 100.42 32 99.5665 33.536C98.7131 35.072 98.0732 36.608 97.6465 38.144Z" fill="url(#paint11_linear_80_2007)"/>
<path d="M117.23 36.288L116.462 35.712C116.316 35.993 116.165 36.2708 116.01 36.5453C115.694 37.5634 115.354 38.5656 114.991 39.552C114.801 40.069 114.619 40.56 114.446 41.0249C115.521 39.6029 116.449 38.0239 117.23 36.288Z" fill="url(#paint12_linear_80_2007)"/>
<defs>
<linearGradient id="paint0_linear_80_2007" x1="108.466" y1="0" x2="108.466" y2="51.648" gradientUnits="userSpaceOnUse">
<stop stop-color="#FF9999"/>
<stop offset="1" stop-color="#BB9CC9"/>
</linearGradient>
<linearGradient id="paint1_linear_80_2007" x1="108.466" y1="0" x2="108.466" y2="51.648" gradientUnits="userSpaceOnUse">
<stop stop-color="#FF9999"/>
<stop offset="1" stop-color="#BB9CC9"/>
</linearGradient>
<linearGradient id="paint2_linear_80_2007" x1="108.466" y1="0" x2="108.466" y2="51.648" gradientUnits="userSpaceOnUse">
<stop stop-color="#FF9999"/>
<stop offset="1" stop-color="#BB9CC9"/>
</linearGradient>
<linearGradient id="paint3_linear_80_2007" x1="108.466" y1="0" x2="108.466" y2="51.648" gradientUnits="userSpaceOnUse">
<stop stop-color="#FF9999"/>
<stop offset="1" stop-color="#BB9CC9"/>
</linearGradient>
<linearGradient id="paint4_linear_80_2007" x1="108.466" y1="0" x2="108.466" y2="51.648" gradientUnits="userSpaceOnUse">
<stop stop-color="#FF9999"/>
<stop offset="1" stop-color="#BB9CC9"/>
</linearGradient>
<linearGradient id="paint5_linear_80_2007" x1="108.466" y1="0" x2="108.466" y2="51.648" gradientUnits="userSpaceOnUse">
<stop stop-color="#FF9999"/>
<stop offset="1" stop-color="#BB9CC9"/>
</linearGradient>
<linearGradient id="paint6_linear_80_2007" x1="108.466" y1="0" x2="108.466" y2="51.648" gradientUnits="userSpaceOnUse">
<stop stop-color="#FF9999"/>
<stop offset="1" stop-color="#BB9CC9"/>
</linearGradient>
<linearGradient id="paint7_linear_80_2007" x1="108.466" y1="0" x2="108.466" y2="51.648" gradientUnits="userSpaceOnUse">
<stop stop-color="#FF9999"/>
<stop offset="1" stop-color="#BB9CC9"/>
</linearGradient>
<linearGradient id="paint8_linear_80_2007" x1="108.466" y1="0" x2="108.466" y2="51.648" gradientUnits="userSpaceOnUse">
<stop stop-color="#FF9999"/>
<stop offset="1" stop-color="#BB9CC9"/>
</linearGradient>
<linearGradient id="paint9_linear_80_2007" x1="108.466" y1="0" x2="108.466" y2="51.648" gradientUnits="userSpaceOnUse">
<stop stop-color="#FF9999"/>
<stop offset="1" stop-color="#BB9CC9"/>
</linearGradient>
<linearGradient id="paint10_linear_80_2007" x1="108.466" y1="0" x2="108.466" y2="51.648" gradientUnits="userSpaceOnUse">
<stop stop-color="#FF9999"/>
<stop offset="1" stop-color="#BB9CC9"/>
</linearGradient>
<linearGradient id="paint11_linear_80_2007" x1="108.466" y1="0" x2="108.466" y2="51.648" gradientUnits="userSpaceOnUse">
<stop stop-color="#FF9999"/>
<stop offset="1" stop-color="#BB9CC9"/>
</linearGradient>
<linearGradient id="paint12_linear_80_2007" x1="108.466" y1="0" x2="108.466" y2="51.648" gradientUnits="userSpaceOnUse">
<stop stop-color="#FF9999"/>
<stop offset="1" stop-color="#BB9CC9"/>
</linearGradient>
</defs>
</svg>
